# xmcd
#
# Track frame offsets:
#	150
#	14340
#	28125
#	42127
#	55757
#	70327
#	83612
#	97625
#	111052
#	124795
#	139125
#	151965
#	164970
#	178675
#	191772
#	205020
#	217922
#	230805
#	244350
#	258810
#	272577
#	286335
#	300227
#	314817
#	328747
#	342295
#
# Disc length: 4736 seconds
#
# Revision: 1
# Processed by: cddbd v1.5.2PL0 Copyright (c) Steve Scherf et al.
# Submitted via: EasyCDDAExtractor 12.0.0.1
#
DISCID=77127e1a
DTITLE=Uncle Dave Macon - Keep My Skillet Good And Greasy - Disc 02
DYEAR=2004
DGENRE=Country
TTITLE0=Muskrat Medley
TTITLE1=Old Ship Of Zion
TTITLE2=Down In Arkansaw
TTITLE3=Down By The Old Mill Stream
TTITLE4=I Don't Reckon It'll Happen Again
TTITLE5=Save My Mother's Picture From The Sale
TTITLE6=Rise When The Rooster Crows
TTITLE7=Way Down The Old Plank Road
TTITLE8=The Bible's True
TTITLE9=He Won The Heart Of My Sarah Jane
TTITLE10=Late Last Night When My Willie Came Home
TTITLE11=I've Got The Mourning Blues
TTITLE12=Death Of John Henry (Steel Driving Man)
TTITLE13=On The Dixie Bee Line (In That Henry Ford Of Mine)
TTITLE14=Buck Dancer's Choice
TTITLE15=The Franklin Blues
TTITLE16=Whoop' Em Up Cindy
TTITLE17=Only As Far As The Gate, Dear Ma
TTITLE18=Just Tell Them That You Saw Me
TTITLE19=Poor Sinners, Fare You Well
TTITLE20=Old Ties
TTITLE21=Knoxville Blues
TTITLE22=We Are Up Against It Now
TTITLE23=Uncle Dave's Beloved Solo
TTITLE24=The Old Man's Drunk Again
TTITLE25=I Ain't Got Long To Stay
EXTD=
EXTT0=
EXTT1=
EXTT2=
EXTT3=
EXTT4=
EXTT5=
EXTT6=
EXTT7=
EXTT8=
EXTT9=
EXTT10=
EXTT11=
EXTT12=
EXTT13=
EXTT14=
EXTT15=
EXTT16=
EXTT17=
EXTT18=
EXTT19=
EXTT20=
EXTT21=
EXTT22=
EXTT23=
EXTT24=
EXTT25=
PLAYORDER=
